<svg width="501" height="183" viewBox="0 0 501 183" fill="none" xmlns="http://www.w3.org/2000/svg">
<g clip-path="url(#clip0_49_501)">
<path d="M0 182.16L51.9768 0H76.2078L24.2311 182.16H0Z" fill="#40FB50"/>
<path d="M114.184 162.342C104.929 162.342 96.8847 160.863 90.0508 157.907C83.2169 154.951 77.8278 150.828 73.9032 145.538C69.9591 140.247 67.6551 134.16 66.9717 127.275H91.8276C92.511 130.173 93.7606 132.818 95.5569 135.21C97.3533 137.622 99.794 139.508 102.918 140.889C106.023 142.27 109.713 142.951 113.989 142.951C118.265 142.951 121.506 142.367 124.142 141.2C126.759 140.033 128.692 138.478 129.941 136.552C131.191 134.627 131.796 132.565 131.796 130.367C131.796 127.061 130.898 124.533 129.102 122.743C127.305 120.954 124.708 119.554 121.331 118.523C117.953 117.492 113.911 116.5 109.205 115.528C104.226 114.575 99.4425 113.369 94.815 111.91C90.1875 110.471 86.0481 108.643 82.3968 106.445C78.7455 104.247 75.8362 101.427 73.708 97.9846C71.5602 94.5421 70.5058 90.3605 70.5058 85.401C70.5058 79.3524 72.1264 73.9261 75.3676 69.1027C78.6089 64.2988 83.3145 60.4673 89.4455 57.6472C95.596 54.8271 102.938 53.4268 111.509 53.4268C123.654 53.4268 133.358 56.208 140.602 61.7704C147.846 67.3328 152.103 75.1514 153.333 85.1871H129.727C129.043 81.3362 127.11 78.341 123.927 76.2211C120.745 74.1011 116.547 73.0314 111.294 73.0314C106.042 73.0314 101.805 74.0233 98.9739 76.0266C96.1427 78.0298 94.7369 80.6749 94.7369 83.9618C94.7369 86.1595 95.596 88.085 97.3338 89.7382C99.052 91.3913 101.571 92.8111 104.89 93.9586C108.209 95.1256 112.271 96.2536 117.113 97.3622C124.845 98.8792 131.679 100.669 137.615 102.73C143.551 104.792 148.237 107.826 151.693 111.813C155.149 115.8 156.867 121.44 156.867 128.734C157.004 135.327 155.305 141.181 151.79 146.277C148.276 151.372 143.336 155.32 136.99 158.141C130.644 160.961 123.049 162.361 114.204 162.361L114.184 162.342Z" fill="#40FB50"/>
<path d="M217.025 162.341C206.677 162.341 197.559 160.105 189.69 155.632C181.821 151.158 175.671 144.876 171.258 136.746C166.845 128.636 164.639 119.281 164.639 108.701C164.639 98.1206 166.806 88.0655 171.16 79.8191C175.514 71.5727 181.645 65.0961 189.592 60.4283C197.539 55.7606 206.755 53.4072 217.24 53.4072C227.725 53.4072 236.356 55.6828 243.951 60.2144C251.546 64.746 257.404 70.8336 261.563 78.4771C265.702 86.1011 267.772 94.6782 267.772 104.169V108.701C267.772 110.354 267.635 112.066 267.362 113.855H182.446V97.965H242.721C242.448 90.3994 239.89 84.4479 235.067 80.1108C230.225 75.7737 224.23 73.6148 217.045 73.6148C211.929 73.6148 207.243 74.7818 202.967 77.1156C198.691 79.4495 195.313 82.9309 192.814 87.5403C190.334 92.1498 189.085 97.9651 189.085 104.967V110.957C189.085 117.414 190.295 122.996 192.716 127.664C195.137 132.332 198.437 135.891 202.655 138.283C206.872 140.695 211.597 141.9 216.85 141.9C222.649 141.9 227.452 140.656 231.24 138.186C235.028 135.716 237.84 132.409 239.636 128.286H264.902C262.969 134.743 259.786 140.559 255.373 145.713C250.961 150.867 245.494 154.931 239.011 157.888C232.529 160.844 225.207 162.322 217.065 162.322L217.025 162.341Z" fill="#40FB50"/>
<path d="M280.288 159.871V55.8968H302.235L304.09 73.2259C307.272 67.1773 311.822 62.3733 317.757 58.7947C323.693 55.2161 330.742 53.4268 338.884 53.4268C347.026 53.4268 354.485 55.1772 360.421 58.678C366.356 62.1788 370.945 67.3134 374.186 74.0428C377.427 80.7916 379.048 89.1741 379.048 99.2099V159.852H354.192V101.466C354.192 92.7917 352.259 86.1401 348.393 81.4529C344.527 76.7851 338.786 74.4318 331.21 74.4318C326.232 74.4318 321.78 75.5987 317.855 77.9326C313.911 80.2665 310.806 83.6701 308.541 88.1433C306.257 92.6166 305.124 98.0235 305.124 104.344V159.833H280.269L280.288 159.871Z" fill="#40FB50"/>
<path d="M440.924 162.341C431.259 162.341 422.628 160.008 415.033 155.32C407.438 150.653 401.541 144.176 397.323 135.93C393.106 127.683 391.017 118.328 391.017 107.884C391.017 97.4399 393.164 88.1238 397.44 79.9357C401.717 71.7477 407.691 65.2906 415.345 60.545C422.999 55.7994 431.669 53.4267 441.334 53.4267C449.202 53.4267 456.075 54.9048 461.933 57.861C467.791 60.8173 472.457 64.9794 475.913 70.3473V11.3389H500.769V159.871H478.393L475.913 144.818C473.707 147.852 471.012 150.691 467.83 153.375C464.647 156.059 460.859 158.218 456.446 159.871C452.034 161.525 446.84 162.341 440.904 162.341H440.924ZM446.098 140.889C452.034 140.889 457.286 139.489 461.835 136.669C466.385 133.849 469.919 129.959 472.399 125.019C474.878 120.059 476.128 114.361 476.128 107.904C476.128 101.446 474.878 95.7284 472.399 90.7883C469.919 85.8483 466.385 81.9973 461.835 79.2356C457.286 76.4933 452.034 75.1124 446.098 75.1124C440.162 75.1124 435.32 76.4933 430.77 79.2356C426.221 81.9973 422.667 85.8288 420.11 90.7883C417.552 95.7478 416.283 101.446 416.283 107.904C416.283 114.361 417.552 120.079 420.11 125.019C422.667 129.959 426.221 133.849 430.77 136.669C435.32 139.489 440.436 140.889 446.098 140.889Z" fill="#40FB50"/>
</g>
<defs>
<clipPath id="clip0_49_501">
<rect width="500.769" height="182.16" fill="white"/>
</clipPath>
</defs>
</svg>
